<?xml version="1.0" encoding="UTF-8"?>
<svg xmlns="http://www.w3.org/2000/svg" width="54" height="54" viewBox="0 0 54 54">
  <g fill="#61DAFB" transform="translate(1 3)">
    <path d="M51.742019,23.5053788 C51.742019,20.0091554 47.4848795,16.6958114 40.9579629,14.6411078 C42.4641745,7.79926757 41.7947471,2.35591669 38.8450829,0.613183795 C38.1651958,0.204394598 37.3702508,0.0107576104 36.5020872,0.0107576104 L36.5020872,2.40970474 C36.9832381,2.40970474 37.3702508,2.50652323 37.6945047,2.68940261 C39.1170378,3.52849622 39.7341661,6.72350652 39.2530152,10.8329137 C39.1379574,11.8441291 38.9496809,12.9091325 38.7195653,13.9956512 C36.669444,13.4792859 34.4310464,13.0812543 32.0775909,12.8230716 C30.6655176,10.8329137 29.2011453,9.02563516 27.7263132,7.44426642 C31.1362087,4.18471046 34.3369082,2.39894713 36.512547,2.39894713 L36.512547,0 C36.512547,0 36.512547,0 36.512547,0 C33.6361014,0 29.8705726,2.10849165 26.0632046,5.76607919 C22.2558366,2.13000687 18.4903079,0.0430304417 15.6138623,0.0430304417 L15.6138623,2.44197757 C17.7790413,2.44197757 20.9902006,4.21698329 24.4000961,7.45502403 C22.9357238,9.03639277 21.4713515,10.8329137 20.0801978,12.8230716 C17.7162825,13.0812543 15.4778848,13.4792859 13.4277636,14.0064088 C13.1871882,12.9306477 13.0093715,11.8871595 12.8838539,10.8867018 C12.3922432,6.77729458 12.9989117,3.58228428 14.410985,2.73243305 C14.7247791,2.53879606 15.1327114,2.45273518 15.6138623,2.45273518 L15.6138623,0.0537880522 C15.6138623,0.0537880522 15.6138623,0.0537880522 15.6138623,0.0537880522 C14.7352389,0.0537880522 13.9402939,0.24742504 13.249947,0.656214237 C10.3107426,2.39894713 9.65177503,7.8315404 11.1684463,14.6518654 C4.66244939,16.7173266 0.426229508,20.019913 0.426229508,23.5053788 C0.426229508,27.0016022 4.68336899,30.3149462 11.2102856,32.3696498 C9.70407404,39.21149 10.3735014,44.6548409 13.3231656,46.3975738 C14.0030527,46.806363 14.7979977,47 15.6766211,47 C18.5530667,47 22.3185955,44.8915084 26.1259635,41.2339208 C29.9333314,44.8699931 33.6988602,46.9569696 36.5753058,46.9569696 C37.4539292,46.9569696 38.2488742,46.7633326 38.9392211,46.3545434 C41.8784255,44.6118105 42.5373931,39.1792172 41.0207218,32.3588922 C47.5057991,30.3041886 51.742019,26.9908446 51.742019,23.5053788 Z M38.1233565,16.3300526 C37.7363439,17.7177844 37.255193,19.1485466 36.7112833,20.5793088 C36.2824314,19.7186999 35.8326599,18.8580911 35.3410492,17.9974823 C34.8598983,17.1368734 34.347368,16.2977798 33.8348377,15.4802014 C35.3201296,15.7061112 36.7531225,15.9858091 38.1233565,16.3300526 Z M33.3327672,27.7869078 C32.5169026,29.2391852 31.6801184,30.6161593 30.8119548,31.8963149 C29.2534443,32.0361639 27.6740142,32.1114672 26.0841242,32.1114672 C24.5046941,32.1114672 22.925264,32.0361639 21.3772133,31.9070726 C20.5090497,30.6269169 19.6618057,29.2607004 18.8459411,27.8191806 C18.0509962,26.4099336 17.3292698,24.9791714 16.6703023,23.5376516 C17.31881,22.0961318 18.0509962,20.654612 18.8354813,19.2453651 C19.6513459,17.7930877 20.4881301,16.4161135 21.3562937,15.1359579 C22.9148042,14.9961089 24.4942343,14.9208057 26.0841242,14.9208057 C27.6635544,14.9208057 29.2429845,14.9961089 30.7910352,15.1252003 C31.6591988,16.4053559 32.5064428,17.7715724 33.3223074,19.2130922 C34.1172523,20.6223392 34.8389787,22.0531014 35.4979462,23.4946212 C34.8389787,24.936141 34.1172523,26.3776608 33.3327672,27.7869078 Z M36.7112833,26.3884184 C37.2761126,27.8299382 37.7572635,29.271458 38.154736,30.6699474 C36.7845019,31.0141909 35.3410492,31.3046464 33.8452975,31.5305562 C34.3578278,30.7022202 34.8703581,29.852369 35.351509,28.9810025 C35.8326599,28.1203937 36.2824314,27.2490272 36.7112833,26.3884184 Z M26.1050438,37.8667887 C25.1322822,36.8340581 24.1595206,35.6829938 23.1972188,34.4243534 C24.138601,34.4673838 25.1009028,34.4996567 26.0736644,34.4996567 C27.0568858,34.4996567 28.0296474,34.4781415 28.9814894,34.4243534 C28.0401073,35.6829938 27.0673456,36.8340581 26.1050438,37.8667887 Z M18.322951,31.5305562 C16.8376591,31.3046464 15.4046662,31.0249485 14.0344321,30.680705 C14.4214448,29.2929732 14.9025957,27.862211 15.4465054,26.4314488 C15.8753573,27.2920577 16.3251288,28.1526665 16.8167395,29.0132753 C17.3083502,29.8738842 17.8104207,30.7129778 18.322951,31.5305562 Z M26.0527448,9.14396887 C27.0255064,10.1766995 27.998268,11.3277638 28.9605698,12.5864042 C28.0191876,12.5433738 27.0568858,12.5111009 26.0841242,12.5111009 C25.1009028,12.5111009 24.1281412,12.5326162 23.1762992,12.5864042 C24.1176814,11.3277638 25.090443,10.1766995 26.0527448,9.14396887 Z M18.3124912,15.4802014 C17.7999609,16.3085374 17.2874306,17.1583886 16.8062797,18.0297551 C16.3251288,18.8903639 15.8753573,19.7509728 15.4465054,20.6115816 C14.8816761,19.1700618 14.4005252,17.728542 14.0030527,16.3300526 C15.3732868,15.9965667 16.8167395,15.7061112 18.3124912,15.4802014 Z M8.84637026,28.9487297 C5.14360029,27.3243305 2.74830559,25.1943236 2.74830559,23.5053788 C2.74830559,21.816434 5.14360029,19.6756695 8.84637026,18.0620279 C9.74591325,17.6639963 10.7291347,17.3089952 11.7437355,16.9755093 C12.3399442,19.0840009 13.1244293,21.2785534 14.097191,23.526894 C13.1348892,25.764477 12.3608638,27.9482719 11.7751149,30.046006 C10.7395945,29.71252 9.75637305,29.3467613 8.84637026,28.9487297 Z M14.4737438,44.321355 C13.0512107,43.4822614 12.4340824,40.2872511 12.9152333,36.1778439 C13.0302911,35.1666285 13.2185676,34.1016251 13.4486832,33.0151064 C15.4988044,33.5314717 17.7372021,33.9295033 20.0906576,34.187686 C21.5027309,36.1778439 22.9671032,37.9851225 24.4419353,39.5664912 C21.0320398,42.8260472 17.8313403,44.6118105 15.6557015,44.6118105 C15.1850104,44.6010529 14.7875379,44.5042344 14.4737438,44.321355 Z M39.2843946,36.1240558 C39.7760053,40.233463 39.1693368,43.4284733 37.7572635,44.2783246 C37.4434694,44.4719615 37.0355371,44.5580224 36.5543862,44.5580224 C34.3892072,44.5580224 31.1780479,42.7830167 27.7681524,39.544976 C29.2325247,37.9636072 30.696897,36.1670863 32.0880507,34.1769284 C34.451966,33.9187457 36.6903637,33.5207141 38.7404849,32.9935912 C38.9810603,34.0801099 39.1693368,35.1235981 39.2843946,36.1240558 Z M43.3114184,28.9487297 C42.4118754,29.3467613 41.428654,29.7017624 40.4140532,30.0352483 C39.8178445,27.9267567 39.0333593,25.7322042 38.0605977,23.4838636 C39.0228995,21.2462806 39.7969249,19.0624857 40.3826738,16.9647517 C41.4181942,17.2982376 42.4014156,17.6639963 43.3218782,18.0620279 C47.0246482,19.6864271 49.4199429,21.816434 49.4199429,23.5053788 C49.4094831,25.1943236 47.0141884,27.3350881 43.3114184,28.9487297 Z"></path>
    <ellipse cx="26.426" cy="23.154" rx="4.789" ry="5.184"></ellipse>
  </g>
</svg>
